<svg width="24" height="24" viewBox="0 0 24 24" fill="none" xmlns="http://www.w3.org/2000/svg">
<path d="M2.04958 3.77627L3.32554 2.5L21.0449 20.2237L19.7689 21.5C19.6043 21.3353 19.1104 20.8619 18.2872 20.0385C17.464 19.2356 16.826 18.5975 16.3938 18.1652C15.0561 18.7416 13.5949 19.0298 12.0309 19.0298C9.56127 19.0298 7.31805 18.3505 5.3218 16.9713C3.32554 15.5921 1.88494 13.7806 1 11.5368C1.34986 10.6929 1.88494 9.80769 2.62582 8.81961C3.3667 7.83153 4.06642 7.06988 4.76614 6.55525C4.3957 6.16414 3.86062 5.62893 3.18148 4.94962C2.52292 4.27031 2.1319 3.8792 2.04958 3.77627ZM7.56501 9.31365C7.19457 10.0547 7.00935 10.7958 7.00935 11.5163C7.00935 12.8954 7.50327 14.0688 8.49111 15.0569C9.47895 16.045 10.652 16.539 12.0309 16.539C12.7512 16.539 13.492 16.3537 14.2329 15.9832L12.6894 14.4393C12.4425 14.4805 12.2161 14.5217 12.0309 14.5217C11.2077 14.5217 10.508 14.2335 9.91113 13.6365C9.33489 13.0395 9.02619 12.3397 9.02619 11.5163C9.02619 11.331 9.06735 11.1046 9.12909 10.8575L7.56501 9.31365ZM12.0309 6.4935C11.4135 6.4935 10.7961 6.61701 10.1993 6.86403L8.03835 4.72319C9.27315 4.24973 10.5903 4.00271 12.0309 4.00271C14.5005 4.00271 16.7231 4.68202 18.7194 6.06121C20.695 7.44041 22.1356 9.25189 23 11.4957C22.2385 13.3483 21.1066 14.9128 19.5837 16.2302L16.6819 13.3277C16.9289 12.7308 17.0524 12.1338 17.0524 11.4957C17.0524 10.1165 16.5585 8.94312 15.5706 7.95504C14.5828 6.96696 13.4097 6.4935 12.0309 6.4935ZM11.8868 8.51083H12.0309C12.8335 8.51083 13.5538 8.79903 14.1506 9.39599C14.7268 9.99296 15.0355 10.6929 15.0355 11.5163V11.7015L11.8868 8.51083Z" fill="#3C57C3"/>
</svg>
