<svg width="24" height="24" viewBox="0 0 24 24" fill="none" xmlns="http://www.w3.org/2000/svg">
<path d="M5.3097 6.92308C7.30037 5.63462 9.53731 5 12 5C14.4627 5 16.6996 5.63462 18.6903 6.92308C20.681 8.21154 22.1175 9.90385 23 12C22.1381 14.0962 20.7015 15.8077 18.6903 17.0769C16.6996 18.3654 14.4627 19 12 19C9.53731 19 7.30037 18.3654 5.3097 17.0769C3.31903 15.7885 1.88246 14.0962 1 12C1.88246 9.90385 3.31903 8.19231 5.3097 6.92308ZM8.47015 15.3077C9.45522 16.2308 10.625 16.6923 12 16.6923C13.375 16.6923 14.5448 16.2308 15.5299 15.3077C16.5149 14.3846 17.0075 13.2885 17.0075 12C17.0075 10.7115 16.5149 9.61538 15.5299 8.69231C14.5448 7.76923 13.375 7.30769 12 7.30769C10.625 7.30769 9.45522 7.76923 8.47015 8.69231C7.48508 9.61538 6.99254 10.7115 6.99254 12C6.99254 13.2885 7.48508 14.3846 8.47015 15.3077ZM9.88619 10.0192C10.4813 9.48077 11.1791 9.19231 12 9.19231C12.8004 9.19231 13.5187 9.46154 14.1138 10.0192C14.6884 10.5769 14.9963 11.2308 14.9963 12C14.9963 12.7692 14.709 13.4231 14.1138 13.9808C13.5187 14.5192 12.8004 14.8077 12 14.8077C11.1791 14.8077 10.4813 14.5385 9.88619 13.9808C9.31157 13.4231 9.00373 12.7692 9.00373 12C9.00373 11.2308 9.31157 10.5769 9.88619 10.0192Z" fill="#3C57C3"/>
</svg>
