<svg width="16" height="19" viewBox="0 0 16 19" fill="none" xmlns="http://www.w3.org/2000/svg">
<path d="M11.8578 17.75H3.64216C2.74727 17.7188 1.91365 17.3055 1.36899 16.623C0.824329 15.9406 0.625524 15.0603 0.826874 14.2225L1.03935 13.2535C1.28372 11.9418 2.45817 10.9778 3.84578 10.95H11.6542C13.0418 10.9778 14.2163 11.9418 14.4607 13.2535L14.6731 14.2225C14.8745 15.0603 14.6757 15.9406 14.131 16.623C13.5863 17.3055 12.7527 17.7188 11.8578 17.75Z" stroke="#212020" stroke-width="1.5"/>
<path d="M8.19265 9.25001H7.30734C5.35157 9.25001 3.7661 7.72778 3.7661 5.85001V3.60601C3.76374 2.84786 4.07638 2.12011 4.63475 1.58401C5.19312 1.04792 5.9511 0.747746 6.74075 0.750013H8.75925C9.5489 0.747746 10.3069 1.04792 10.8652 1.58401C11.4236 2.12011 11.7363 2.84786 11.7339 3.60601V5.85001C11.7339 6.75174 11.3608 7.61655 10.6967 8.25417C10.0326 8.89179 9.13185 9.25001 8.19265 9.25001Z" stroke="#212020" stroke-width="1.5"/>
</svg>
